<svg xmlns="http://www.w3.org/2000/svg" width="24" height="24" viewBox="0 0 24 24">
    <g fill="none" fill-rule="evenodd">
        <path d="M0 0L24 0 24 24 0 24z" transform="translate(-1048 -189) translate(1032 181) translate(16 8)"/>
        <path fill="#92929D"
              d="M17.637 4.683c3.27 3.27 3.55 8.397.843 11.986l3.614 3.613c.943.943-.471 2.358-1.414 1.415l-3.572-3.57c-3.599 3.08-9.02 2.916-12.425-.49-3.577-3.577-3.577-9.377 0-12.954s9.377-3.577 12.954 0zM6.097 6.097c-2.796 2.796-2.796 7.33 0 10.126 2.796 2.796 7.33 2.796 10.126 0 2.796-2.796 2.796-7.33 0-10.126-2.796-2.796-7.33-2.796-10.126 0z"
              transform="translate(-1048 -189) translate(1032 181) translate(16 8)"/>
    </g>
</svg>
